<?xml version="1.0" encoding="UTF-8" standalone="no"?>
<!-- Created with Inkscape (http://www.inkscape.org/) -->

<svg
   width="203.44232mm"
   height="123.48356mm"
   viewBox="0 0 203.44232 123.48356"
   version="1.1"
   id="svg1"
   xml:space="preserve"
   xmlns:xlink="http://www.w3.org/1999/xlink"
   xmlns="http://www.w3.org/2000/svg"
   xmlns:svg="http://www.w3.org/2000/svg"><defs
     id="defs1"><path
       id="path-2"
       d="m 57.903386,1.8492099 c -1.84921,-1.04018056 -4.045147,-1.04018056 -5.894357,0 L 3.351693,29.934086 c -1.8492099,1.04018 -2.88939052,3.004966 -2.88939052,5.085327 V 91.30474 c 0,2.080362 1.15575622,4.045147 2.88939052,5.085328 l 48.657336,28.084872 c 1.84921,1.04018 4.045147,1.04018 5.894357,0 L 106.56072,96.390068 c 1.84921,-1.040181 2.88939,-3.004966 2.88939,-5.085328 V 35.019413 c 0,-2.080361 -1.15575,-4.045147 -2.88939,-5.085327 z" /></defs><g
     id="layer1"
     transform="translate(-166.86506,-224.79699)"><g
       fill="none"
       id="g47"
       transform="matrix(0.39788723,0,0,0.39439729,166.7731,224.79699)"
       style="fill:#666666;fill-opacity:1;stroke-width:0.999651;stroke-dasharray:none"><path
         d="m 253.11061,313.09436 c -1.73364,0 -3.35169,-0.46231 -4.85418,-1.27134 l -15.37155,-9.13047 c -2.31152,-1.27133 -1.15576,-1.73363 -0.46231,-1.96479 3.12054,-1.04017 3.69842,-1.27133 6.93454,-3.12054 0.34673,-0.23115 0.80903,-0.11557 1.15576,0.11558 l 11.78871,7.05011 c 0.4623,0.23115 1.04018,0.23115 1.38691,0 l 46.11467,-26.69797 c 0.4623,-0.23115 0.69345,-0.69345 0.69345,-1.27133 v -53.28036 c 0,-0.57788 -0.23115,-1.04018 -0.69345,-1.27133 l -46.11467,-26.58239 c -0.46231,-0.23116 -1.04018,-0.23116 -1.38691,0 l -46.11467,26.58239 c -0.46231,0.23115 -0.69346,0.80903 -0.69346,1.27133 v 53.28036 c 0,0.4623 0.23115,1.04018 0.69346,1.27133 l 12.59774,7.28127 c 6.81896,3.46727 11.09526,-0.57788 11.09526,-4.62303 v -52.58691 c 0,-0.69345 0.57788,-1.3869 1.38691,-1.3869 h 5.89435 c 0.69346,0 1.38691,0.57788 1.38691,1.3869 v 52.58691 c 0,9.13048 -4.96975,14.44695 -13.63792,14.44695 -2.65824,0 -4.7386,0 -10.63296,-2.88938 l -12.13544,-6.93454 c -3.00497,-1.73364 -4.85418,-4.96975 -4.85418,-8.43702 v -53.28036 c 0,-3.46727 1.84921,-6.70339 4.85418,-8.43702 l 46.11467,-26.69797 c 2.88939,-1.61806 6.81896,-1.61806 9.70836,0 l 46.11467,26.69797 c 3.00496,1.73363 4.85417,4.96975 4.85417,8.43702 v 53.28036 c 0,3.46727 -1.84921,6.70338 -4.85417,8.43702 l -46.11467,26.69797 c -1.50249,0.69345 -3.23612,1.04018 -4.85418,1.04018 z m 14.2158,-36.63748 c -20.22573,0 -24.38646,-9.24605 -24.38646,-17.10519 0,-0.69345 0.57788,-1.3869 1.38691,-1.3869 h 6.00993 c 0.69346,0 1.27134,0.4623 1.27134,1.15575 0.9246,6.12551 3.58284,9.13048 15.83386,9.13048 9.70835,0 13.86907,-2.19594 13.86907,-7.39684 0,-3.00497 -1.15576,-5.20091 -16.29616,-6.70339 -12.59774,-1.27133 -20.45689,-4.04515 -20.45689,-14.10023 0,-9.36162 7.85915,-14.90925 21.03477,-14.90925 14.79368,0 22.07494,5.08533 22.99955,16.18059 0,0.34672 -0.11558,0.69345 -0.34673,1.04018 -0.23115,0.23115 -0.57788,0.4623 -0.92461,0.4623 h -6.00993 c -0.57788,0 -1.15576,-0.4623 -1.27133,-1.04018 -1.38691,-6.35666 -4.96975,-8.43702 -14.44695,-8.43702 -10.63296,0 -11.90429,3.69842 -11.90429,6.47223 0,3.3517 1.50248,4.39188 15.83386,6.24109 14.2158,1.84921 20.91918,4.50745 20.91918,14.44695 -0.11557,10.17065 -8.43701,15.94943 -23.11512,15.94943 z"
         fill="#539e43"
         id="path30"
         style="fill:#666666;fill-opacity:1;stroke-width:0.999651;stroke-dasharray:none" /><path
         d="m 110.02799,104.71151 c 0,-2.08036 -1.15575,-4.04514 -3.00496,-5.085325 L 58.018962,71.425734 c -0.80903,-0.462303 -1.733635,-0.693454 -2.65824,-0.80903 H 54.89842 c -0.924605,0 -1.84921,0.346727 -2.658239,0.80903 L 3.2361174,99.626185 c -1.84921,1.040185 -3.00496616,3.004965 -3.00496616,5.085325 l 0.11557562,75.81761 c 0,1.04018 0.57787811,2.08036 1.50248304,2.54266 0.924605,0.57788 2.0803612,0.57788 2.8893905,0 L 33.863657,166.42889 c 1.84921,-1.04018 3.004966,-3.00496 3.004966,-5.08532 v -35.48172 c 0,-2.08036 1.155756,-4.04515 3.004966,-5.08533 l 12.366592,-7.16569 c 0.924605,-0.57787 1.964785,-0.80902 3.004966,-0.80902 1.04018,0 2.080361,0.23115 2.88939,0.80902 l 12.366592,7.16569 c 1.84921,1.04018 3.004966,3.00497 3.004966,5.08533 v 35.48172 c 0,2.08036 1.155756,4.04514 3.004966,5.08532 l 29.125059,16.64289 c 0.9246,0.57788 2.08036,0.57788 3.00496,0 0.92461,-0.4623 1.50249,-1.50248 1.50249,-2.54266 z"
         fill="#333333"
         id="path31"
         style="fill:#666666;fill-opacity:1;stroke-width:0.999651;stroke-dasharray:none" /><path
         d="m 345.57111,0.34672686 c -0.92461,-0.46230248 -2.08037,-0.46230248 -2.88939,0 -0.92461,0.57787811 -1.50249,1.50248304 -1.50249,2.54266364 V 78.013544 c 0,0.693454 -0.34672,1.386908 -1.04018,1.84921 -0.69345,0.346727 -1.38691,0.346727 -2.08036,0 l -12.25101,-7.050113 c -1.84922,-1.040181 -4.04515,-1.040181 -5.89436,0 l -49.00407,28.316029 c -1.84921,1.04018 -3.00496,3.00496 -3.00496,5.08532 v 56.51648 c 0,2.08036 1.15575,4.04515 3.00496,5.08533 l 49.00407,28.31603 c 1.84921,1.04018 4.04514,1.04018 5.89436,0 l 49.00406,-28.31603 c 1.84921,-1.04018 3.00496,-3.00497 3.00496,-5.08533 V 21.843792 c 0,-2.195937 -1.15575,-4.160722 -3.00496,-5.200903 z M 341.06366,144.1228 c 0,0.57788 -0.23115,1.04018 -0.69346,1.27133 l -16.75846,9.70835 c -0.4623,0.23115 -1.04018,0.23115 -1.50248,0 l -16.75847,-9.70835 c -0.4623,-0.23115 -0.69345,-0.80903 -0.69345,-1.27133 v -19.4167 c 0,-0.57788 0.23115,-1.04019 0.69345,-1.27134 l 16.75847,-9.70835 c 0.4623,-0.23115 1.04018,-0.23115 1.50248,0 l 16.75846,9.70835 c 0.46231,0.23115 0.69346,0.80903 0.69346,1.27134 z"
         fill="#333333"
         id="path32"
         style="fill:#666666;fill-opacity:1;stroke-width:0.999651;stroke-dasharray:none" /><g
         transform="translate(401.0474,70.501129)"
         id="g34"
         style="fill:#666666;fill-opacity:1;stroke-width:0.999651;stroke-dasharray:none"><path
           d="m 107.6009,53.742664 c 1.84921,-1.040181 2.88939,-3.004966 2.88939,-5.085328 V 34.903838 c 0,-2.080362 -1.15575,-4.045147 -2.88939,-5.085328 L 58.943567,1.6180587 c -1.84921,-1.0401806 -4.045147,-1.0401806 -5.894357,0 L 4.0451467,29.934086 c -1.8492099,1.04018 -3.0049661,3.004966 -3.0049661,5.085327 v 56.516479 c 0,2.080361 1.1557562,4.045146 3.0049661,5.085327 L 52.702483,124.35937 c 1.84921,1.04018 4.045147,1.04018 5.778781,0 l 29.471783,-16.41174 c 0.924605,-0.4623 1.502483,-1.50248 1.502483,-2.54266 0,-1.04018 -0.577878,-2.08036 -1.502483,-2.54267 L 38.717833,74.546275 C 37.793228,73.968397 37.21535,73.043792 37.21535,72.003612 v -17.68307 c 0,-1.040181 0.577878,-2.080361 1.502483,-2.542664 L 54.08939,42.994131 c 0.924605,-0.577878 2.080362,-0.577878 3.004967,0 l 15.371557,8.783747 c 0.924605,0.577878 1.502483,1.502483 1.502483,2.542664 v 13.869074 c 0,1.040181 0.577878,2.080361 1.502483,2.542664 0.924605,0.577878 2.080362,0.577878 3.004967,0 z"
           fill="#333333"
           id="path33"
           style="fill:#666666;fill-opacity:1;stroke-width:0.999651;stroke-dasharray:none" /><path
           d="m 55.245147,51.084424 c 0.346727,-0.231151 0.809029,-0.231151 1.155756,0 l 9.361625,5.432055 c 0.346727,0.231151 0.577878,0.577878 0.577878,1.04018 v 10.864108 c 0,0.462303 -0.231151,0.80903 -0.577878,1.040181 l -9.361625,5.432054 c -0.346727,0.231152 -0.809029,0.231152 -1.155756,0 L 45.883521,69.460948 C 45.536795,69.229797 45.305643,68.88307 45.305643,68.420767 V 57.556659 c 0,-0.462302 0.231152,-0.809029 0.577878,-1.04018 z"
           fill="#539e43"
           id="path34"
           style="fill:#666666;fill-opacity:1;stroke-width:0.999651;stroke-dasharray:none" /></g><g
         transform="translate(134.06772,70.501129)"
         id="g46"
         style="fill:#666666;fill-opacity:1;stroke-width:0.999651;stroke-dasharray:none"><mask
           id="mask-3"
           fill="#ffffff"><use
             xlink:href="#path-2"
             id="use34" /></mask><use
           fill="url(#linearGradient-1)"
           xlink:href="#path-2"
           id="use35"
           style="fill:#666666;fill-opacity:1;stroke-width:0.999651;stroke-dasharray:none" /><g
           mask="url(#mask-3)"
           id="g37"
           style="fill:#666666;fill-opacity:1;stroke-width:0.999651;stroke-dasharray:none"><path
             d="M 51.893454,1.8492099 3.1205418,29.934086 C 1.2713318,30.974266 0,32.939052 0,35.019413 V 91.30474 c 0,1.386908 0.5778781,2.65824 1.5024831,3.69842 L 56.285327,1.1557562 C 54.89842,0.92460497 53.280361,1.0401806 51.893454,1.8492099 Z"
             id="path35"
             style="fill:#666666;fill-opacity:1;stroke-width:0.999651;stroke-dasharray:none" /><path
             d="m 56.632054,125.05282 c 0.462303,-0.11557 0.924605,-0.34672 1.386908,-0.57788 L 106.79187,96.390068 c 1.84921,-1.040181 3.00497,-3.004966 3.00497,-5.085328 V 35.019413 c 0,-1.502483 -0.69345,-3.004966 -1.73364,-4.045147 z"
             id="path36"
             style="fill:#666666;fill-opacity:1;stroke-width:0.999651;stroke-dasharray:none" /><path
             d="M 106.6763,29.934086 57.78781,1.8492099 C 57.325508,1.6180587 56.74763,1.3869074 56.285327,1.2713318 L 1.5024831,95.118736 c 0.4623024,0.577878 1.0401806,1.040181 1.6180587,1.386907 L 52.009029,124.59052 c 1.386908,0.80903 3.004966,1.04018 4.50745,0.57788 L 107.94763,31.089842 c -0.34673,-0.462303 -0.80903,-0.809029 -1.27133,-1.155756 z"
             fill="url(#linearGradient-4)"
             id="path37"
             style="fill:#666666;fill-opacity:1;stroke-width:0.999651;stroke-dasharray:none" /></g><g
           mask="url(#mask-3)"
           id="g45"
           style="fill:#666666;fill-opacity:1;stroke-width:0.999651;stroke-dasharray:none"><g
             transform="translate(0,-9.24605)"
             id="g44"
             style="fill:#666666;fill-opacity:1;stroke-width:0.999651;stroke-dasharray:none"><path
               d="M 109.79684,100.55079 V 44.265463 c 0,-2.080361 -1.27133,-4.045147 -3.12054,-5.085328 L 57.78781,11.09526 C 57.209932,10.748533 56.632054,10.517382 55.9386,10.401806 l 53.51151,91.420314 c 0.23115,-0.34672 0.34673,-0.80903 0.34673,-1.27133 z"
               fill="none"
               id="path38"
               style="fill:#666666;fill-opacity:1;stroke-width:0.999651;stroke-dasharray:none" /><path
               d="M 3.1205418,39.180135 C 1.2713318,40.220316 0,42.185102 0,44.265463 v 56.285327 c 0,2.08036 1.3869074,4.04515 3.1205418,5.08533 l 48.8884872,28.08487 c 1.155757,0.69346 2.427088,0.92461 3.813996,0.69346 L 3.4672686,39.06456 Z"
               fill="none"
               id="path39"
               style="fill:#666666;fill-opacity:1;stroke-width:0.999651;stroke-dasharray:none" /><path
               fill="url(#linearGradient-5)"
               fill-rule="evenodd"
               d="M 50.390971,0.80902934 49.697517,1.1557562 h 0.924605 z"
               id="path40"
               style="fill:#666666;fill-opacity:1;stroke-width:0.999651;stroke-dasharray:none" /><path
               d="m 106.79187,105.63612 c 1.38691,-0.80903 2.42709,-2.19594 2.88939,-3.69842 L 56.054176,10.401806 c -1.386907,-0.231151 -2.88939,-0.115576 -4.160722,0.693454 l -48.541761,27.9693 52.355756,95.46546 c 0.693454,-0.11557 1.502483,-0.34672 2.195937,-0.69345 z"
               fill="url(#linearGradient-6)"
               fill-rule="evenodd"
               id="path41"
               style="fill:#666666;fill-opacity:1;stroke-width:0.999651;stroke-dasharray:none" /><path
               fill="url(#linearGradient-7)"
               fill-rule="evenodd"
               d="m 111.29932,104.71151 -0.34672,-0.57788 v 0.80903 z"
               id="path42"
               style="fill:#666666;fill-opacity:1;stroke-width:0.999651;stroke-dasharray:none" /><path
               d="m 106.79187,105.63612 -48.772908,28.08487 c -0.693454,0.34673 -1.386908,0.57788 -2.195937,0.69346 l 0.924605,1.73363 54.08939,-31.32099 v -0.69346 l -1.38691,-2.31151 c -0.23115,1.61806 -1.27133,3.00497 -2.65824,3.814 z"
               fill="url(#linearGradient-8)"
               fill-rule="evenodd"
               id="path43"
               style="fill:#666666;fill-opacity:1;stroke-width:0.999651;stroke-dasharray:none" /><path
               d="m 106.79187,105.63612 -48.772908,28.08487 c -0.693454,0.34673 -1.386908,0.57788 -2.195937,0.69346 l 0.924605,1.73363 54.08939,-31.32099 v -0.69346 l -1.38691,-2.31151 c -0.23115,1.61806 -1.27133,3.00497 -2.65824,3.814 z"
               fill="url(#linearGradient-9)"
               fill-rule="evenodd"
               id="path44"
               style="fill:#666666;fill-opacity:1;stroke-width:0.999651;stroke-dasharray:none" /></g></g></g></g></g></svg>
