<?xml version="1.0" encoding="UTF-8" standalone="no"?>
<!-- Created with Inkscape (http://www.inkscape.org/) -->

<svg
   width="31.220833mm"
   height="31.220835mm"
   viewBox="0 0 31.220833 31.220835"
   version="1.1"
   id="svg1"
   xml:space="preserve"
   xmlns="http://www.w3.org/2000/svg"
   xmlns:svg="http://www.w3.org/2000/svg"><defs
     id="defs1" /><g
     id="layer1"
     transform="translate(-132.47615,-212.9927)"><path
       d="m 134.39696,212.99268 c -1.06413,0 -1.92081,0.85669 -1.92081,1.92082 v 27.3792 c 0,1.06413 0.85668,1.92082 1.92081,1.92082 h 27.37921 c 1.06413,0 1.92081,-0.85669 1.92081,-1.92082 v -27.3792 c 0,-1.06413 -0.85668,-1.92082 -1.92081,-1.92082 z m 22.69629,14.47871 c 0.73174,0 1.34152,0.0423 1.89033,0.12764 0.5488,0.0854 1.06102,0.21952 1.52445,0.39636 v 2.86597 c -0.21342,-0.15854 -0.46343,-0.29869 -0.73174,-0.42065 -0.28659,-0.12195 -0.56709,-0.21941 -0.85369,-0.29869 -0.2866,-0.0793 -0.5732,-0.13831 -0.8537,-0.17673 -0.2683,-0.0384 -0.5366,-0.0574 -0.79271,-0.0574 -0.37197,0 -0.68906,0.0306 -0.97565,0.0977 -0.2927,0.0671 -0.53661,0.15813 -0.73174,0.28009 -0.19513,0.12195 -0.34697,0.2623 -0.45734,0.43304 -0.11037,0.17074 -0.16485,0.36009 -0.16485,0.56741 0,0.22562 0.061,0.42685 0.18294,0.60978 0.12196,0.17684 0.29269,0.34748 0.51831,0.51212 0.20123,0.15854 0.47563,0.31688 0.79272,0.47542 0.36587,0.15854 0.69515,0.31698 1.09761,0.48162 0.5488,0.23172 1.03663,0.48783 1.46347,0.73174 0.42685,0.24391 0.78662,0.53051 1.09761,0.8537 0.32928,0.30489 0.5671,0.67076 0.73174,1.0976 0.16464,0.42685 0.25011,0.90858 0.25011,1.46348 0,0.79272 -0.18913,1.4025 -0.43304,1.9513 -0.24392,0.54881 -0.66467,0.95736 -1.15859,1.28054 -0.48783,0.2988 -1.03663,0.53052 -1.70739,0.67076 -0.67076,0.14025 -1.34152,0.20774 -2.07326,0.20774 -0.73174,0 -1.46347,-0.0611 -2.13423,-0.18913 -0.67076,-0.12806 -1.27445,-0.31698 -1.76837,-0.57309 v -2.92696 c 0.43294,0.36221 1.04283,0.70983 1.71359,0.94155 0.60978,0.23172 1.28054,0.34726 1.9513,0.34726 0.42685,0 0.75003,-0.0363 1.03663,-0.10335 0.29879,-0.0732 0.53661,-0.17105 0.73174,-0.293 0.19513,-0.12196 0.34036,-0.268 0.43305,-0.43874 0.0927,-0.17074 0.14004,-0.35367 0.14004,-0.5488 0,-0.2805 -0.0791,-0.52441 -0.23151,-0.73174 -0.14025,-0.20733 -0.34758,-0.40246 -0.60978,-0.57929 -0.24392,-0.17684 -0.54881,-0.34799 -0.91468,-0.51263 -0.36586,-0.16464 -0.73783,-0.33518 -1.15858,-0.50591 -1.03663,-0.48783 -1.85374,-0.97566 -2.37815,-1.64642 -0.53051,-0.60978 -0.79272,-1.40249 -0.79272,-2.31717 0,-0.73174 0.14025,-1.31713 0.42685,-1.82934 0.30489,-0.54881 0.66466,-0.95126 1.15859,-1.28054 0.48782,-0.33538 1.03663,-0.5793 1.70739,-0.73174 0.67076,-0.15245 1.34152,-0.23151 2.07325,-0.23151 z m -17.42167,0.33899 h 10.91509 v 2.50011 h -3.9026 v 11.15901 h -3.10989 v -11.15901 h -3.9026 z"
       style="fill:#666666"
       id="path17" /></g></svg>
